# xmcd
#
# Track frame offsets:
# 150
# 7503
# 14101
# 21129
# 28184
# 36612
# 43136
# 47662
# 55543
# 62145
#
# Disc length: 1926 seconds
#
#
# Revision: 0
# Processed by: cddbd v1.4PL0 Copyright (c) Steve Scherf et al.
# Submitted via: FreeRIP 2.00 
#
DISCID=7e07840a
DTITLE=Waylon Jennings - Full Circle
DYEAR=1988
DGENRE=Country
TTITLE0=Trouble Man
TTITLE1=Grapes On The Vine
TTITLE2=Which Way Do I Go
TTITLE3=Yoyos, Bozos, Bimbos And Heroes
TTITLE4=It Goes With The Territory
TTITLE5=How Much Is It Worth To Live In L.A.
TTITLE6=Hey Willie
TTITLE7=You Put The Soul In The Song
TTITLE8=G.I. Joe
TTITLE9=Woman I Hate
EXTD=MCA MCA 42222\n
EXTT0=
EXTT1=
EXTT2=
EXTT3=
EXTT4=
EXTT5=
EXTT6=
EXTT7=
EXTT8=
EXTT9=
PLAYORDER=
